<mxfile host="Electron" agent="Mozilla/5.0 (Windows NT 10.0; Win64; x64) AppleWebKit/537.36 (KHTML, like Gecko) draw.io/27.0.9 Chrome/134.0.6998.205 Electron/35.4.0 Safari/537.36" version="27.0.9">
  <diagram id="C5RBs43oDa-KdzZeNtuy" name="Page-1">
    <mxGraphModel dx="2339" dy="776" grid="1" gridSize="10" guides="1" tooltips="1" connect="1" arrows="1" fold="1" page="1" pageScale="1" pageWidth="827" pageHeight="1169" background="none" math="0" shadow="0">
      <root>
        <mxCell id="WIyWlLk6GJQsqaUBKTNV-0" />
        <mxCell id="WIyWlLk6GJQsqaUBKTNV-1" parent="WIyWlLk6GJQsqaUBKTNV-0" />
        <mxCell id="M7CGMbNuYNeq0SnUNNgH-6" value="ทบทวนสัญลักษณ์" style="swimlane;fontFamily=Sarabun;fontSource=https%3A%2F%2Ffonts.googleapis.com%2Fcss%3Ffamily%3DSarabun;labelBackgroundColor=none;fillColor=#182E3E;strokeColor=#FFFFFF;fontColor=#FFFFFF;" parent="WIyWlLk6GJQsqaUBKTNV-1" vertex="1">
          <mxGeometry x="-720" y="20" width="640" height="290" as="geometry" />
        </mxCell>
        <mxCell id="M7CGMbNuYNeq0SnUNNgH-2" value="&lt;font data-font-src=&quot;https://fonts.googleapis.com/css?family=Sarabun&quot; face=&quot;Sarabun&quot;&gt;เริ่มต้น&lt;/font&gt;" style="ellipse;whiteSpace=wrap;html=1;labelBackgroundColor=none;fillColor=#182E3E;strokeColor=#FFFFFF;fontColor=#FFFFFF;" parent="M7CGMbNuYNeq0SnUNNgH-6" vertex="1">
          <mxGeometry x="20" y="40" width="130" height="30" as="geometry" />
        </mxCell>
        <mxCell id="M7CGMbNuYNeq0SnUNNgH-5" value="" style="endArrow=classic;html=1;rounded=0;labelBackgroundColor=none;strokeColor=#23445D;fontColor=default;" parent="M7CGMbNuYNeq0SnUNNgH-6" edge="1">
          <mxGeometry width="50" height="50" relative="1" as="geometry">
            <mxPoint x="84.5" y="70" as="sourcePoint" />
            <mxPoint x="84.5" y="120" as="targetPoint" />
          </mxGeometry>
        </mxCell>
        <mxCell id="M7CGMbNuYNeq0SnUNNgH-3" value="&lt;font face=&quot;Sarabun&quot;&gt;สิ้นสุด&lt;/font&gt;" style="ellipse;whiteSpace=wrap;html=1;labelBackgroundColor=none;fillColor=#182E3E;strokeColor=#FFFFFF;fontColor=#FFFFFF;" parent="M7CGMbNuYNeq0SnUNNgH-6" vertex="1">
          <mxGeometry x="150" y="90" width="130" height="30" as="geometry" />
        </mxCell>
        <mxCell id="M7CGMbNuYNeq0SnUNNgH-4" value="" style="endArrow=classic;html=1;rounded=0;labelBackgroundColor=none;strokeColor=#23445D;fontColor=default;" parent="M7CGMbNuYNeq0SnUNNgH-6" edge="1">
          <mxGeometry width="50" height="50" relative="1" as="geometry">
            <mxPoint x="214.5" y="40" as="sourcePoint" />
            <mxPoint x="214.5" y="90" as="targetPoint" />
          </mxGeometry>
        </mxCell>
        <mxCell id="mvioNwK95yMqdUQ73LqQ-0" value="กระบวนการ" style="rounded=0;whiteSpace=wrap;html=1;fontFamily=Sarabun;fontSource=https%3A%2F%2Ffonts.googleapis.com%2Fcss%3Ffamily%3DSarabun;labelBackgroundColor=none;fillColor=#182E3E;strokeColor=#FFFFFF;fontColor=#FFFFFF;" parent="M7CGMbNuYNeq0SnUNNgH-6" vertex="1">
          <mxGeometry x="320" y="70" width="120" height="30" as="geometry" />
        </mxCell>
        <mxCell id="mvioNwK95yMqdUQ73LqQ-1" value="" style="endArrow=classic;html=1;rounded=0;labelBackgroundColor=none;strokeColor=#23445D;fontColor=default;" parent="M7CGMbNuYNeq0SnUNNgH-6" edge="1">
          <mxGeometry width="50" height="50" relative="1" as="geometry">
            <mxPoint x="379" y="40" as="sourcePoint" />
            <mxPoint x="379.5" y="70" as="targetPoint" />
          </mxGeometry>
        </mxCell>
        <mxCell id="mvioNwK95yMqdUQ73LqQ-2" value="" style="endArrow=classic;html=1;rounded=0;labelBackgroundColor=none;strokeColor=#23445D;fontColor=default;" parent="M7CGMbNuYNeq0SnUNNgH-6" edge="1">
          <mxGeometry width="50" height="50" relative="1" as="geometry">
            <mxPoint x="379.75" y="100" as="sourcePoint" />
            <mxPoint x="380.25" y="130" as="targetPoint" />
          </mxGeometry>
        </mxCell>
        <mxCell id="mvioNwK95yMqdUQ73LqQ-3" value="ประโยคเงื่อนไข" style="rhombus;whiteSpace=wrap;html=1;fontFamily=Sarabun;fontSource=https%3A%2F%2Ffonts.googleapis.com%2Fcss%3Ffamily%3DSarabun;labelBackgroundColor=none;fillColor=#182E3E;strokeColor=#FFFFFF;fontColor=#FFFFFF;" parent="M7CGMbNuYNeq0SnUNNgH-6" vertex="1">
          <mxGeometry x="490" y="60" width="100" height="60" as="geometry" />
        </mxCell>
        <mxCell id="mvioNwK95yMqdUQ73LqQ-4" value="" style="endArrow=classic;html=1;rounded=0;labelBackgroundColor=none;strokeColor=#23445D;fontColor=default;" parent="M7CGMbNuYNeq0SnUNNgH-6" edge="1">
          <mxGeometry width="50" height="50" relative="1" as="geometry">
            <mxPoint x="539.71" y="30" as="sourcePoint" />
            <mxPoint x="540.21" y="60" as="targetPoint" />
          </mxGeometry>
        </mxCell>
        <mxCell id="mvioNwK95yMqdUQ73LqQ-5" value="" style="endArrow=classic;html=1;rounded=0;labelBackgroundColor=none;strokeColor=#23445D;fontColor=default;" parent="M7CGMbNuYNeq0SnUNNgH-6" edge="1">
          <mxGeometry width="50" height="50" relative="1" as="geometry">
            <mxPoint x="539.71" y="120" as="sourcePoint" />
            <mxPoint x="540" y="175" as="targetPoint" />
          </mxGeometry>
        </mxCell>
        <mxCell id="mvioNwK95yMqdUQ73LqQ-7" value="จริง" style="edgeLabel;html=1;align=center;verticalAlign=middle;resizable=0;points=[];fontFamily=Sarabun;fontSource=https%3A%2F%2Ffonts.googleapis.com%2Fcss%3Ffamily%3DSarabun;labelBackgroundColor=none;fontColor=#FFFFFF;" parent="mvioNwK95yMqdUQ73LqQ-5" vertex="1" connectable="0">
          <mxGeometry x="-0.4142" y="-1" relative="1" as="geometry">
            <mxPoint as="offset" />
          </mxGeometry>
        </mxCell>
        <mxCell id="mvioNwK95yMqdUQ73LqQ-6" value="" style="endArrow=classic;html=1;rounded=0;exitX=1;exitY=0.5;exitDx=0;exitDy=0;labelBackgroundColor=none;strokeColor=#23445D;fontColor=default;" parent="M7CGMbNuYNeq0SnUNNgH-6" source="mvioNwK95yMqdUQ73LqQ-3" edge="1">
          <mxGeometry width="50" height="50" relative="1" as="geometry">
            <mxPoint x="620" y="95" as="sourcePoint" />
            <mxPoint x="610" y="175" as="targetPoint" />
            <Array as="points">
              <mxPoint x="610" y="90" />
            </Array>
          </mxGeometry>
        </mxCell>
        <mxCell id="mvioNwK95yMqdUQ73LqQ-8" value="&lt;font data-font-src=&quot;https://fonts.googleapis.com/css?family=Sarabun&quot; face=&quot;Sarabun&quot;&gt;เท็จ&lt;/font&gt;" style="edgeLabel;html=1;align=center;verticalAlign=middle;resizable=0;points=[];labelBackgroundColor=none;fontColor=#FFFFFF;" parent="mvioNwK95yMqdUQ73LqQ-6" vertex="1" connectable="0">
          <mxGeometry x="-0.0019" y="-2" relative="1" as="geometry">
            <mxPoint as="offset" />
          </mxGeometry>
        </mxCell>
        <mxCell id="mvioNwK95yMqdUQ73LqQ-9" value="&lt;font data-font-src=&quot;https://fonts.googleapis.com/css?family=Sarabun&quot; face=&quot;Sarabun&quot;&gt;ฟังก์ชัน/โมดูล&lt;/font&gt;" style="shape=process;whiteSpace=wrap;html=1;backgroundOutline=1;labelBackgroundColor=none;fillColor=#182E3E;strokeColor=#FFFFFF;fontColor=#FFFFFF;" parent="M7CGMbNuYNeq0SnUNNgH-6" vertex="1">
          <mxGeometry x="25" y="180" width="120" height="30" as="geometry" />
        </mxCell>
        <mxCell id="mvioNwK95yMqdUQ73LqQ-11" value="" style="endArrow=classic;html=1;rounded=0;labelBackgroundColor=none;strokeColor=#23445D;fontColor=default;" parent="M7CGMbNuYNeq0SnUNNgH-6" edge="1">
          <mxGeometry width="50" height="50" relative="1" as="geometry">
            <mxPoint x="84.70999999999998" y="150" as="sourcePoint" />
            <mxPoint x="85.20999999999998" y="180" as="targetPoint" />
          </mxGeometry>
        </mxCell>
        <mxCell id="mvioNwK95yMqdUQ73LqQ-12" value="" style="endArrow=classic;html=1;rounded=0;labelBackgroundColor=none;strokeColor=#23445D;fontColor=default;" parent="M7CGMbNuYNeq0SnUNNgH-6" edge="1">
          <mxGeometry width="50" height="50" relative="1" as="geometry">
            <mxPoint x="84.70999999999998" y="210" as="sourcePoint" />
            <mxPoint x="85.20999999999998" y="240" as="targetPoint" />
          </mxGeometry>
        </mxCell>
        <mxCell id="mvioNwK95yMqdUQ73LqQ-13" value="" style="strokeWidth=2;html=1;shape=mxgraph.flowchart.start_2;whiteSpace=wrap;labelBackgroundColor=none;fillColor=#182E3E;strokeColor=#FFFFFF;fontColor=#FFFFFF;" parent="M7CGMbNuYNeq0SnUNNgH-6" vertex="1">
          <mxGeometry x="205" y="185" width="20" height="20" as="geometry" />
        </mxCell>
        <mxCell id="mvioNwK95yMqdUQ73LqQ-16" value="" style="endArrow=classic;html=1;rounded=0;labelBackgroundColor=none;strokeColor=#23445D;fontColor=default;" parent="M7CGMbNuYNeq0SnUNNgH-6" edge="1">
          <mxGeometry width="50" height="50" relative="1" as="geometry">
            <mxPoint x="214.70999999999998" y="155" as="sourcePoint" />
            <mxPoint x="215.20999999999998" y="185" as="targetPoint" />
          </mxGeometry>
        </mxCell>
        <mxCell id="mvioNwK95yMqdUQ73LqQ-17" value="" style="endArrow=classic;html=1;rounded=0;entryX=0;entryY=0.5;entryDx=0;entryDy=0;entryPerimeter=0;labelBackgroundColor=none;strokeColor=#23445D;fontColor=default;" parent="M7CGMbNuYNeq0SnUNNgH-6" target="mvioNwK95yMqdUQ73LqQ-13" edge="1">
          <mxGeometry width="50" height="50" relative="1" as="geometry">
            <mxPoint x="189.99999999999997" y="155" as="sourcePoint" />
            <mxPoint x="190.49999999999997" y="185" as="targetPoint" />
            <Array as="points">
              <mxPoint x="190" y="180" />
            </Array>
          </mxGeometry>
        </mxCell>
        <mxCell id="mvioNwK95yMqdUQ73LqQ-18" value="" style="endArrow=classic;html=1;rounded=0;entryX=1;entryY=0.5;entryDx=0;entryDy=0;entryPerimeter=0;labelBackgroundColor=none;strokeColor=#23445D;fontColor=default;" parent="M7CGMbNuYNeq0SnUNNgH-6" target="mvioNwK95yMqdUQ73LqQ-13" edge="1">
          <mxGeometry width="50" height="50" relative="1" as="geometry">
            <mxPoint x="239.99999999999997" y="155" as="sourcePoint" />
            <mxPoint x="240.49999999999997" y="185" as="targetPoint" />
            <Array as="points">
              <mxPoint x="240" y="180" />
            </Array>
          </mxGeometry>
        </mxCell>
        <mxCell id="mvioNwK95yMqdUQ73LqQ-19" value="" style="endArrow=classic;html=1;rounded=0;labelBackgroundColor=none;strokeColor=#23445D;fontColor=default;" parent="M7CGMbNuYNeq0SnUNNgH-6" edge="1">
          <mxGeometry width="50" height="50" relative="1" as="geometry">
            <mxPoint x="214.70999999999998" y="205" as="sourcePoint" />
            <mxPoint x="215.20999999999998" y="235" as="targetPoint" />
          </mxGeometry>
        </mxCell>
        <mxCell id="mvioNwK95yMqdUQ73LqQ-20" value="&lt;font data-font-src=&quot;https://fonts.googleapis.com/css?family=Sarabun&quot; face=&quot;Sarabun&quot;&gt;ตัวเชื่อม&lt;/font&gt;" style="text;html=1;align=center;verticalAlign=middle;resizable=0;points=[];autosize=1;strokeColor=none;fillColor=none;labelBackgroundColor=none;fontColor=#FFFFFF;" parent="M7CGMbNuYNeq0SnUNNgH-6" vertex="1">
          <mxGeometry x="220" y="190" width="60" height="30" as="geometry" />
        </mxCell>
        <mxCell id="mvioNwK95yMqdUQ73LqQ-25" value="" style="endArrow=classic;html=1;rounded=0;labelBackgroundColor=none;strokeColor=#23445D;fontColor=default;" parent="M7CGMbNuYNeq0SnUNNgH-6" edge="1">
          <mxGeometry width="50" height="50" relative="1" as="geometry">
            <mxPoint x="353.71" y="165" as="sourcePoint" />
            <mxPoint x="354.21" y="195" as="targetPoint" />
          </mxGeometry>
        </mxCell>
        <mxCell id="mvioNwK95yMqdUQ73LqQ-21" value="" style="verticalLabelPosition=bottom;verticalAlign=top;html=1;shape=offPageConnector;rounded=0;size=0.5;labelBackgroundColor=none;fillColor=#182E3E;strokeColor=#FFFFFF;fontColor=#FFFFFF;" parent="M7CGMbNuYNeq0SnUNNgH-6" vertex="1">
          <mxGeometry x="339" y="195" width="30" height="30" as="geometry" />
        </mxCell>
        <mxCell id="mvioNwK95yMqdUQ73LqQ-26" value="" style="endArrow=classic;html=1;rounded=0;labelBackgroundColor=none;strokeColor=#23445D;fontColor=default;" parent="M7CGMbNuYNeq0SnUNNgH-6" edge="1">
          <mxGeometry width="50" height="50" relative="1" as="geometry">
            <mxPoint x="405.71" y="195" as="sourcePoint" />
            <mxPoint x="406.21" y="225" as="targetPoint" />
          </mxGeometry>
        </mxCell>
        <mxCell id="mvioNwK95yMqdUQ73LqQ-27" value="" style="verticalLabelPosition=bottom;verticalAlign=top;html=1;shape=offPageConnector;rounded=0;size=0.5;labelBackgroundColor=none;fillColor=#182E3E;strokeColor=#FFFFFF;fontColor=#FFFFFF;" parent="M7CGMbNuYNeq0SnUNNgH-6" vertex="1">
          <mxGeometry x="391" y="165" width="30" height="30" as="geometry" />
        </mxCell>
        <mxCell id="mvioNwK95yMqdUQ73LqQ-28" value="หน้าต่อไป" style="text;html=1;align=center;verticalAlign=middle;resizable=0;points=[];autosize=1;strokeColor=none;fillColor=none;fontFamily=Sarabun;fontSource=https%3A%2F%2Ffonts.googleapis.com%2Fcss%3Ffamily%3DSarabun;labelBackgroundColor=none;fontColor=#FFFFFF;" parent="M7CGMbNuYNeq0SnUNNgH-6" vertex="1">
          <mxGeometry x="345" y="220" width="70" height="30" as="geometry" />
        </mxCell>
        <mxCell id="mvioNwK95yMqdUQ73LqQ-29" value="ก" style="text;html=1;align=center;verticalAlign=middle;resizable=0;points=[];autosize=1;strokeColor=none;fillColor=none;fontFamily=Sarabun;fontSource=https%3A%2F%2Ffonts.googleapis.com%2Fcss%3Ffamily%3DSarabun;labelBackgroundColor=none;fontColor=#FFFFFF;" parent="M7CGMbNuYNeq0SnUNNgH-6" vertex="1">
          <mxGeometry x="339" y="190" width="30" height="30" as="geometry" />
        </mxCell>
        <mxCell id="mvioNwK95yMqdUQ73LqQ-30" value="ก" style="text;html=1;align=center;verticalAlign=middle;resizable=0;points=[];autosize=1;strokeColor=none;fillColor=none;fontFamily=Sarabun;fontSource=https%3A%2F%2Ffonts.googleapis.com%2Fcss%3Ffamily%3DSarabun;labelBackgroundColor=none;fontColor=#FFFFFF;" parent="M7CGMbNuYNeq0SnUNNgH-6" vertex="1">
          <mxGeometry x="391" y="160" width="30" height="30" as="geometry" />
        </mxCell>
        <mxCell id="mvioNwK95yMqdUQ73LqQ-32" value="แสดงผล/รับค่า" style="shape=parallelogram;perimeter=parallelogramPerimeter;whiteSpace=wrap;html=1;fixedSize=1;fontFamily=Sarabun;fontSource=https%3A%2F%2Ffonts.googleapis.com%2Fcss%3Ffamily%3DSarabun;labelBackgroundColor=none;fillColor=#182E3E;strokeColor=#FFFFFF;fontColor=#FFFFFF;" parent="M7CGMbNuYNeq0SnUNNgH-6" vertex="1">
          <mxGeometry x="450" y="210" width="120" height="30" as="geometry" />
        </mxCell>
        <mxCell id="mvioNwK95yMqdUQ73LqQ-33" value="" style="endArrow=classic;html=1;rounded=0;labelBackgroundColor=none;strokeColor=#23445D;fontColor=default;" parent="M7CGMbNuYNeq0SnUNNgH-6" edge="1">
          <mxGeometry width="50" height="50" relative="1" as="geometry">
            <mxPoint x="509.71" y="180" as="sourcePoint" />
            <mxPoint x="510.21" y="210" as="targetPoint" />
          </mxGeometry>
        </mxCell>
        <mxCell id="mvioNwK95yMqdUQ73LqQ-34" value="" style="endArrow=classic;html=1;rounded=0;labelBackgroundColor=none;strokeColor=#23445D;fontColor=default;" parent="M7CGMbNuYNeq0SnUNNgH-6" edge="1">
          <mxGeometry width="50" height="50" relative="1" as="geometry">
            <mxPoint x="509.71" y="240" as="sourcePoint" />
            <mxPoint x="510.21" y="270" as="targetPoint" />
          </mxGeometry>
        </mxCell>
        <mxCell id="mvioNwK95yMqdUQ73LqQ-36" value="--" style="swimlane;fontFamily=Sarabun;fontSource=https%3A%2F%2Ffonts.googleapis.com%2Fcss%3Ffamily%3DSarabun;labelBackgroundColor=none;" parent="WIyWlLk6GJQsqaUBKTNV-1" vertex="1">
          <mxGeometry x="-720" y="570" width="1400" height="1290" as="geometry" />
        </mxCell>
        <mxCell id="ESNEgxvBpzHI3Ey90jB8-0" value="เริ่มต้น" style="ellipse;whiteSpace=wrap;html=1;aspect=fixed;" parent="mvioNwK95yMqdUQ73LqQ-36" vertex="1">
          <mxGeometry x="645.5652871870398" y="62" width="110.82734325689039" height="55.41995792131285" as="geometry" />
        </mxCell>
        <mxCell id="uPyEy4UkAUA6BdO69IEx-2" value="" style="edgeStyle=orthogonalEdgeStyle;rounded=0;orthogonalLoop=1;jettySize=auto;html=1;" parent="mvioNwK95yMqdUQ73LqQ-36" source="ESNEgxvBpzHI3Ey90jB8-0" target="uPyEy4UkAUA6BdO69IEx-0" edge="1">
          <mxGeometry relative="1" as="geometry" />
        </mxCell>
        <mxCell id="ESNEgxvBpzHI3Ey90jB8-1" value="รับจำนวนเงินที่เติม" style="rounded=1;whiteSpace=wrap;html=1;" parent="mvioNwK95yMqdUQ73LqQ-36" vertex="1">
          <mxGeometry x="615.9447983014863" y="264.4064927346135" width="170.06369426751596" height="55.20177074580371" as="geometry" />
        </mxCell>
        <mxCell id="ESNEgxvBpzHI3Ey90jB8-3" value="แสดงเมนูสินค้าและยอดเงิน\nรับชื่อสินค้า" style="rounded=1;whiteSpace=wrap;html=1;" parent="mvioNwK95yMqdUQ73LqQ-36" vertex="1">
          <mxGeometry x="795.4564755838644" y="393.21062447482217" width="207.85562632696397" height="55.20177074580371" as="geometry" />
        </mxCell>
        <mxCell id="ESNEgxvBpzHI3Ey90jB8-4" style="edgeStyle=orthogonalEdgeStyle;endArrow=block;html=1;" parent="mvioNwK95yMqdUQ73LqQ-36" source="ESNEgxvBpzHI3Ey90jB8-1" target="ESNEgxvBpzHI3Ey90jB8-3" edge="1">
          <mxGeometry relative="1" as="geometry" />
        </mxCell>
        <mxCell id="ESNEgxvBpzHI3Ey90jB8-5" value="สินค้าอยู่ในรายการ?" style="rhombus;whiteSpace=wrap;html=1;" parent="mvioNwK95yMqdUQ73LqQ-36" vertex="1">
          <mxGeometry x="198.343949044586" y="531.2150513393315" width="113.37579617834395" height="55.20177074580371" as="geometry" />
        </mxCell>
        <mxCell id="ESNEgxvBpzHI3Ey90jB8-6" style="edgeStyle=orthogonalEdgeStyle;endArrow=block;html=1;" parent="mvioNwK95yMqdUQ73LqQ-36" source="ESNEgxvBpzHI3Ey90jB8-3" target="ESNEgxvBpzHI3Ey90jB8-5" edge="1">
          <mxGeometry relative="1" as="geometry" />
        </mxCell>
        <mxCell id="ESNEgxvBpzHI3Ey90jB8-7" value="แจ้งว่าไม่มีในรายการ\nวนกลับไปเลือกสินค้าใหม่" style="rounded=1;whiteSpace=wrap;html=1;" parent="mvioNwK95yMqdUQ73LqQ-36" vertex="1">
          <mxGeometry x="170" y="687.6200684524418" width="170.06369426751596" height="55.20177074580371" as="geometry" />
        </mxCell>
        <mxCell id="ESNEgxvBpzHI3Ey90jB8-8" style="edgeStyle=orthogonalEdgeStyle;endArrow=block;html=1;" parent="mvioNwK95yMqdUQ73LqQ-36" source="ESNEgxvBpzHI3Ey90jB8-5" target="ESNEgxvBpzHI3Ey90jB8-7" edge="1">
          <mxGeometry relative="1" as="geometry" />
        </mxCell>
        <mxCell id="Dk7BU3wzvn7IlKeEetwg-5" value="no" style="edgeLabel;html=1;align=center;verticalAlign=middle;resizable=0;points=[];" parent="ESNEgxvBpzHI3Ey90jB8-8" vertex="1" connectable="0">
          <mxGeometry x="-0.3658" y="-5" relative="1" as="geometry">
            <mxPoint as="offset" />
          </mxGeometry>
        </mxCell>
        <mxCell id="ESNEgxvBpzHI3Ey90jB8-9" style="edgeStyle=orthogonalEdgeStyle;endArrow=block;html=1;" parent="mvioNwK95yMqdUQ73LqQ-36" source="ESNEgxvBpzHI3Ey90jB8-26" target="ESNEgxvBpzHI3Ey90jB8-3" edge="1">
          <mxGeometry relative="1" as="geometry" />
        </mxCell>
        <mxCell id="ESNEgxvBpzHI3Ey90jB8-10" value="เงินพอจ่าย?" style="rhombus;whiteSpace=wrap;html=1;" parent="mvioNwK95yMqdUQ73LqQ-36" vertex="1">
          <mxGeometry x="399.58598726114644" y="531.2150513393315" width="113.37579617834395" height="55.20177074580371" as="geometry" />
        </mxCell>
        <mxCell id="ESNEgxvBpzHI3Ey90jB8-11" style="edgeStyle=orthogonalEdgeStyle;endArrow=block;html=1;" parent="mvioNwK95yMqdUQ73LqQ-36" source="ESNEgxvBpzHI3Ey90jB8-5" target="ESNEgxvBpzHI3Ey90jB8-10" edge="1">
          <mxGeometry relative="1" as="geometry" />
        </mxCell>
        <mxCell id="Dk7BU3wzvn7IlKeEetwg-4" value="yes" style="edgeLabel;html=1;align=center;verticalAlign=middle;resizable=0;points=[];" parent="ESNEgxvBpzHI3Ey90jB8-11" vertex="1" connectable="0">
          <mxGeometry x="-0.1333" y="-4" relative="1" as="geometry">
            <mxPoint as="offset" />
          </mxGeometry>
        </mxCell>
        <mxCell id="ESNEgxvBpzHI3Ey90jB8-12" value="เงินไม่พอ\nเติมเงิน? (yes/no)" style="rhombus;whiteSpace=wrap;html=1;" parent="mvioNwK95yMqdUQ73LqQ-36" vertex="1">
          <mxGeometry x="634.8447717231222" y="531.219830713422" width="132.26789396170838" height="52.448851269649346" as="geometry" />
        </mxCell>
        <mxCell id="ESNEgxvBpzHI3Ey90jB8-13" style="edgeStyle=orthogonalEdgeStyle;endArrow=block;html=1;" parent="mvioNwK95yMqdUQ73LqQ-36" source="ESNEgxvBpzHI3Ey90jB8-10" target="ESNEgxvBpzHI3Ey90jB8-12" edge="1">
          <mxGeometry relative="1" as="geometry" />
        </mxCell>
        <mxCell id="Dk7BU3wzvn7IlKeEetwg-2" value="yes" style="edgeLabel;html=1;align=center;verticalAlign=middle;resizable=0;points=[];" parent="ESNEgxvBpzHI3Ey90jB8-13" vertex="1" connectable="0">
          <mxGeometry x="0.0269" y="-3" relative="1" as="geometry">
            <mxPoint x="-1" as="offset" />
          </mxGeometry>
        </mxCell>
        <mxCell id="ESNEgxvBpzHI3Ey90jB8-14" style="edgeStyle=orthogonalEdgeStyle;endArrow=block;html=1;entryX=0.5;entryY=1;entryDx=0;entryDy=0;" parent="mvioNwK95yMqdUQ73LqQ-36" source="ESNEgxvBpzHI3Ey90jB8-12" target="ESNEgxvBpzHI3Ey90jB8-1" edge="1">
          <mxGeometry relative="1" as="geometry">
            <mxPoint x="700.9766454352444" y="356.40944397761973" as="targetPoint" />
          </mxGeometry>
        </mxCell>
        <mxCell id="Dk7BU3wzvn7IlKeEetwg-0" value="yes" style="edgeLabel;html=1;align=center;verticalAlign=middle;resizable=0;points=[];" parent="ESNEgxvBpzHI3Ey90jB8-14" vertex="1" connectable="0">
          <mxGeometry x="0.0074" y="3" relative="1" as="geometry">
            <mxPoint x="2" y="24" as="offset" />
          </mxGeometry>
        </mxCell>
        <mxCell id="ESNEgxvBpzHI3Ey90jB8-15" style="edgeStyle=orthogonalEdgeStyle;endArrow=block;html=1;exitX=1;exitY=0.5;exitDx=0;exitDy=0;entryX=0;entryY=0.5;entryDx=0;entryDy=0;entryPerimeter=0;" parent="mvioNwK95yMqdUQ73LqQ-36" source="ESNEgxvBpzHI3Ey90jB8-12" target="ESNEgxvBpzHI3Ey90jB8-26" edge="1">
          <mxGeometry relative="1" as="geometry" />
        </mxCell>
        <mxCell id="Dk7BU3wzvn7IlKeEetwg-1" value="no" style="edgeLabel;html=1;align=center;verticalAlign=middle;resizable=0;points=[];" parent="ESNEgxvBpzHI3Ey90jB8-15" vertex="1" connectable="0">
          <mxGeometry x="-0.2027" y="3" relative="1" as="geometry">
            <mxPoint as="offset" />
          </mxGeometry>
        </mxCell>
        <mxCell id="ESNEgxvBpzHI3Ey90jB8-16" value="เพิ่มสินค้าในตะกร้า\nอัปเดตยอดเงิน\nแสดงตะกร้า" style="rounded=1;whiteSpace=wrap;html=1;" parent="mvioNwK95yMqdUQ73LqQ-36" vertex="1">
          <mxGeometry x="371.2420382165606" y="798.0236099440493" width="170.06369426751596" height="73.60236099440495" as="geometry" />
        </mxCell>
        <mxCell id="ESNEgxvBpzHI3Ey90jB8-17" style="edgeStyle=orthogonalEdgeStyle;endArrow=block;html=1;" parent="mvioNwK95yMqdUQ73LqQ-36" source="ESNEgxvBpzHI3Ey90jB8-10" target="ESNEgxvBpzHI3Ey90jB8-16" edge="1">
          <mxGeometry relative="1" as="geometry" />
        </mxCell>
        <mxCell id="Dk7BU3wzvn7IlKeEetwg-3" value="no" style="edgeLabel;html=1;align=center;verticalAlign=middle;resizable=0;points=[];" parent="ESNEgxvBpzHI3Ey90jB8-17" vertex="1" connectable="0">
          <mxGeometry x="-0.3488" y="2" relative="1" as="geometry">
            <mxPoint as="offset" />
          </mxGeometry>
        </mxCell>
        <mxCell id="ESNEgxvBpzHI3Ey90jB8-18" value="ต้องการเลือกสินค้าเพิ่ม? (yes/no)" style="rounded=1;whiteSpace=wrap;html=1;" parent="mvioNwK95yMqdUQ73LqQ-36" vertex="1">
          <mxGeometry x="804.9044585987263" y="807.22390506835" width="170.06369426751596" height="55.20177074580371" as="geometry" />
        </mxCell>
        <mxCell id="ESNEgxvBpzHI3Ey90jB8-19" style="edgeStyle=orthogonalEdgeStyle;endArrow=block;html=1;" parent="mvioNwK95yMqdUQ73LqQ-36" source="ESNEgxvBpzHI3Ey90jB8-16" target="ESNEgxvBpzHI3Ey90jB8-18" edge="1">
          <mxGeometry relative="1" as="geometry" />
        </mxCell>
        <mxCell id="ESNEgxvBpzHI3Ey90jB8-20" style="edgeStyle=orthogonalEdgeStyle;endArrow=block;html=1;exitX=1;exitY=0.5;exitDx=0;exitDy=0;entryX=1;entryY=0.5;entryDx=0;entryDy=0;" parent="mvioNwK95yMqdUQ73LqQ-36" source="ESNEgxvBpzHI3Ey90jB8-18" target="ESNEgxvBpzHI3Ey90jB8-3" edge="1">
          <mxGeometry relative="1" as="geometry">
            <Array as="points">
              <mxPoint x="1060.0000000000002" y="834.8247904412518" />
              <mxPoint x="1060.0000000000002" y="420.8115098477239" />
            </Array>
          </mxGeometry>
        </mxCell>
        <mxCell id="ESNEgxvBpzHI3Ey90jB8-21" value="สรุปยอดสินค้า\nเงินทอน" style="rounded=1;whiteSpace=wrap;html=1;" parent="mvioNwK95yMqdUQ73LqQ-36" vertex="1">
          <mxGeometry x="804.9044585987263" y="922.0428713135079" width="170.06369426751596" height="55.20177074580371" as="geometry" />
        </mxCell>
        <mxCell id="ESNEgxvBpzHI3Ey90jB8-22" style="edgeStyle=orthogonalEdgeStyle;endArrow=block;html=1;" parent="mvioNwK95yMqdUQ73LqQ-36" source="ESNEgxvBpzHI3Ey90jB8-18" target="ESNEgxvBpzHI3Ey90jB8-21" edge="1">
          <mxGeometry relative="1" as="geometry" />
        </mxCell>
        <mxCell id="ESNEgxvBpzHI3Ey90jB8-23" value="สิ้นสุด" style="ellipse;whiteSpace=wrap;html=1;aspect=fixed;" parent="mvioNwK95yMqdUQ73LqQ-36" vertex="1">
          <mxGeometry x="830.8478497790869" y="1200.003978234583" width="118.16973332632021" height="59.09115295602776" as="geometry" />
        </mxCell>
        <mxCell id="ESNEgxvBpzHI3Ey90jB8-25" value="" style="edgeStyle=orthogonalEdgeStyle;endArrow=block;html=1;" parent="mvioNwK95yMqdUQ73LqQ-36" source="ESNEgxvBpzHI3Ey90jB8-7" target="ESNEgxvBpzHI3Ey90jB8-26" edge="1">
          <mxGeometry relative="1" as="geometry">
            <mxPoint x="455.3290870488323" y="715.2209538253439" as="sourcePoint" />
            <mxPoint x="899.3842887473462" y="448.4123952206258" as="targetPoint" />
          </mxGeometry>
        </mxCell>
        <mxCell id="ESNEgxvBpzHI3Ey90jB8-26" value="" style="strokeWidth=2;html=1;shape=mxgraph.flowchart.start_2;whiteSpace=wrap;labelBackgroundColor=none;" parent="mvioNwK95yMqdUQ73LqQ-36" vertex="1">
          <mxGeometry x="889.9363057324841" y="548.2456415879327" width="18.895966029723997" height="18.400590248601237" as="geometry" />
        </mxCell>
        <mxCell id="uPyEy4UkAUA6BdO69IEx-3" value="" style="edgeStyle=orthogonalEdgeStyle;rounded=0;orthogonalLoop=1;jettySize=auto;html=1;" parent="mvioNwK95yMqdUQ73LqQ-36" source="uPyEy4UkAUA6BdO69IEx-0" target="ESNEgxvBpzHI3Ey90jB8-1" edge="1">
          <mxGeometry relative="1" as="geometry" />
        </mxCell>
        <mxCell id="uPyEy4UkAUA6BdO69IEx-0" value="แสดงเมนูสินค้า" style="rounded=1;whiteSpace=wrap;html=1;" parent="mvioNwK95yMqdUQ73LqQ-36" vertex="1">
          <mxGeometry x="597.0488322717622" y="168.7234234418871" width="207.85562632696397" height="55.20177074580371" as="geometry" />
        </mxCell>
        <mxCell id="qCDnmtnE7eTBcoCC0Jwe-3" value="" style="edgeStyle=orthogonalEdgeStyle;rounded=0;orthogonalLoop=1;jettySize=auto;html=1;" parent="mvioNwK95yMqdUQ73LqQ-36" source="G3lfqqP3yeIjZQuezH1j-0" target="ESNEgxvBpzHI3Ey90jB8-23" edge="1">
          <mxGeometry relative="1" as="geometry" />
        </mxCell>
        <mxCell id="qCDnmtnE7eTBcoCC0Jwe-1" value="ขัดแยกว่าต้องทอนแบ้งอะไรบ้างเหรียญอะไรบ้าง" style="rounded=1;whiteSpace=wrap;html=1;" parent="mvioNwK95yMqdUQ73LqQ-36" vertex="1">
          <mxGeometry x="771.9724447717231" y="1010.0015961305927" width="235.93519882179675" height="55.19818621523579" as="geometry" />
        </mxCell>
        <mxCell id="qCDnmtnE7eTBcoCC0Jwe-2" value="" style="edgeStyle=orthogonalEdgeStyle;endArrow=block;html=1;" parent="mvioNwK95yMqdUQ73LqQ-36" source="ESNEgxvBpzHI3Ey90jB8-21" target="qCDnmtnE7eTBcoCC0Jwe-1" edge="1">
          <mxGeometry relative="1" as="geometry">
            <mxPoint x="-55.11524065926832" y="1924.2831143811616" as="targetPoint" />
            <mxPoint x="-55.449189985272454" y="1841.3131801692866" as="sourcePoint" />
          </mxGeometry>
        </mxCell>
        <mxCell id="G3lfqqP3yeIjZQuezH1j-1" value="" style="edgeStyle=orthogonalEdgeStyle;rounded=0;orthogonalLoop=1;jettySize=auto;html=1;" edge="1" parent="mvioNwK95yMqdUQ73LqQ-36" source="qCDnmtnE7eTBcoCC0Jwe-1" target="G3lfqqP3yeIjZQuezH1j-0">
          <mxGeometry relative="1" as="geometry">
            <mxPoint x="170" y="1660" as="sourcePoint" />
            <mxPoint x="170" y="1770" as="targetPoint" />
          </mxGeometry>
        </mxCell>
        <mxCell id="G3lfqqP3yeIjZQuezH1j-0" value="เอาสินค้าให้" style="rounded=1;whiteSpace=wrap;html=1;" vertex="1" parent="mvioNwK95yMqdUQ73LqQ-36">
          <mxGeometry x="815.99" y="1110" width="147.9" height="55.2" as="geometry" />
        </mxCell>
        <mxCell id="qCDnmtnE7eTBcoCC0Jwe-9" value="&lt;font data-font-src=&quot;https://fonts.googleapis.com/css?family=Sarabun&quot; face=&quot;Sarabun&quot;&gt;โจทย์ปัญหา&lt;/font&gt;" style="swimlane;whiteSpace=wrap;html=1;" parent="WIyWlLk6GJQsqaUBKTNV-1" vertex="1">
          <mxGeometry x="-720" y="320" width="640" height="240" as="geometry" />
        </mxCell>
        <mxCell id="qCDnmtnE7eTBcoCC0Jwe-10" value="&lt;font data-font-src=&quot;https://fonts.googleapis.com/css?family=Sarabun&quot; face=&quot;Sarabun&quot; style=&quot;font-size: 14px;&quot;&gt;จงเขียน Flowchart เพื่อแสดงขั้นตอนการทำงาน ของเครื่องขายน้ำอัตโนมัติที่ชื่อว่า &quot;ตะพาบลอย&quot;&lt;br&gt;โดยจะต้องมีสินค้าดังนี้&lt;br&gt;&lt;u&gt;ประเภทน้ำ&lt;span style=&quot;white-space: pre;&quot;&gt;&#x9;&lt;/span&gt;&lt;span style=&quot;white-space: pre;&quot;&gt;&#x9;&lt;/span&gt;&lt;span style=&quot;white-space: pre;&quot;&gt;&#x9;&lt;/span&gt;&lt;span style=&quot;white-space: pre;&quot;&gt;&#x9;&lt;/span&gt;&lt;span style=&quot;white-space: pre;&quot;&gt;&#x9;&lt;/span&gt;&lt;span style=&quot;white-space: pre;&quot;&gt;&#x9;&lt;span style=&quot;white-space: pre;&quot;&gt;&#x9;&lt;/span&gt;ข&lt;/span&gt;นม&lt;/u&gt;&lt;br&gt;&lt;span style=&quot;white-space: pre;&quot;&gt;&#x9;&lt;/span&gt;- โค้ก กระป๋องละ 10 บาท&lt;span style=&quot;white-space: pre;&quot;&gt;&#x9;&lt;/span&gt;&lt;span style=&quot;white-space: pre;&quot;&gt;&#x9;&lt;/span&gt;&lt;span style=&quot;white-space: pre;&quot;&gt;&#x9;&lt;/span&gt;&lt;span style=&quot;white-space: pre;&quot;&gt;&#x9;&lt;/span&gt;- เมล็ดทานตะวัน 13 บาท&lt;br&gt;&lt;span style=&quot;white-space: pre;&quot;&gt;&#x9;&lt;/span&gt;- น้ำเขียว กระป๋องละ 12 บาท&lt;span style=&quot;white-space: pre;&quot;&gt;&#x9;&lt;/span&gt;&lt;span style=&quot;white-space: pre;&quot;&gt;&#x9;&lt;/span&gt;&lt;span style=&quot;white-space: pre;&quot;&gt;&#x9;&lt;/span&gt;- ถั่วแปบ 20 บาท&lt;br&gt;&lt;span style=&quot;white-space: pre;&quot;&gt;&#x9;&lt;/span&gt;- อเมริกาโน่ 30 บาท&lt;span style=&quot;white-space: pre;&quot;&gt;&#x9;&lt;/span&gt;&lt;span style=&quot;white-space: pre;&quot;&gt;&#x9;&lt;/span&gt;&lt;span style=&quot;white-space: pre;&quot;&gt;&#x9;&lt;/span&gt;&lt;span style=&quot;white-space: pre;&quot;&gt;&#x9;&lt;/span&gt;&lt;span style=&quot;white-space: pre;&quot;&gt;&#x9;&lt;/span&gt;- จิ้นส้มหมก 15 บาท&lt;br&gt;&lt;span style=&quot;white-space: pre;&quot;&gt;&#x9;&lt;/span&gt;- ลาเต้ หวานเจี๊ยบ 35 บาท&lt;span style=&quot;white-space: pre;&quot;&gt;&#x9;&lt;/span&gt;&lt;br&gt;&lt;br&gt;&lt;u&gt;สิ่งที่ระบบควรจะทำได้&lt;/u&gt;&lt;br&gt;&lt;span style=&quot;white-space: pre;&quot;&gt;&#x9;&lt;/span&gt;- ลูกค้าเลือกสินค้า, ระบบจะต้องรวมยอดขาย และรวมรายการสินค้าทั้งหมดที่ลูกค้าเลือก&lt;br&gt;&lt;span style=&quot;white-space: pre;&quot;&gt;&#x9;&lt;/span&gt;- สรุปยอดว่าเหลือเงินในตู้อีกเท่าไหร่ เหลือเหรียญอะไรบ้าง? ธนบัตรอะไรบ้าง? อย่างละเท่าไหร่?&lt;br&gt;&lt;br&gt;&lt;br&gt;&lt;/font&gt;" style="text;html=1;align=left;verticalAlign=middle;resizable=0;points=[];autosize=1;strokeColor=none;fillColor=none;fontSize=14;" parent="qCDnmtnE7eTBcoCC0Jwe-9" vertex="1">
          <mxGeometry x="25" y="30" width="580" height="240" as="geometry" />
        </mxCell>
      </root>
    </mxGraphModel>
  </diagram>
</mxfile>
